<svg width="78" height="54" viewBox="0 0 78 54" fill="none" xmlns="http://www.w3.org/2000/svg">
<path d="M39.4375 40.8741L30.2266 32.8145V44.6571L39.4375 53.5392L48.6485 44.6571V32.8145L39.4375 40.8741Z" fill="#B388FE"/>
<path d="M48.6485 32.8145L39.4375 40.8741V53.5392L48.6485 44.9856V32.8145Z" fill="#6E39CB"/>
<path d="M15.259 12.0894V51.5338C15.259 52.6832 14.4014 53.6903 13.2534 53.6329C-5.33393 52.7043 -3.19912 0 12.3806 0H67.0728C67.4495 0 67.8306 0.095469 68.159 0.280064C84.9321 9.70885 77.6484 31.9413 65.7141 33.8449C64.5383 34.0324 63.5733 33.0551 63.5167 31.8658L62.5698 11.9799C62.5113 10.7521 61.4988 9.78667 60.2696 9.78667H55.3595C54.7488 9.78667 54.1631 10.0293 53.7313 10.4611L41.0357 23.1567C40.1484 24.044 38.714 24.0575 37.8102 23.1871L24.5631 10.4307C24.134 10.0175 23.5615 9.78667 22.9658 9.78667H17.5618C16.29 9.78667 15.259 10.8176 15.259 12.0894Z" fill="#6E39CB"/>
</svg>
